<svg width="27" height="24" viewBox="0 0 27 24" fill="none" xmlns="http://www.w3.org/2000/svg">
<rect width="27" height="24" fill="#E5E5E5"/>
<g clip-path="url(#clip0)">
<rect width="1920" height="1437" transform="translate(-687 -325)" fill="white"/>
<rect x="-687" y="-325" width="1921" height="1437" fill="#E5CF94"/>
<rect x="-687" y="-325" width="1920" height="374" fill="#965A1B"/>
<path d="M-344 -15C-344 -17.7614 -341.761 -20 -339 -20H46C48.7614 -20 51 -17.7614 51 -15V111C51 113.761 48.7614 116 46 116H-339C-341.761 116 -344 113.761 -344 111V-15Z" fill="white"/>
<path d="M19.1818 23V20.5555C19.1818 19.2589 18.7029 18.0154 17.8505 17.0986C16.998 16.1817 15.8419 15.6667 14.6364 15.6667H5.54545C4.33992 15.6667 3.18377 16.1817 2.33133 17.0986C1.47889 18.0154 1 19.2589 1 20.5555V23" stroke="#5F3305" stroke-width="2" stroke-linecap="round" stroke-linejoin="round"/>
<path d="M10.25 10C12.7353 10 14.75 7.98528 14.75 5.5C14.75 3.01472 12.7353 1 10.25 1C7.76472 1 5.75 3.01472 5.75 5.5C5.75 7.98528 7.76472 10 10.25 10Z" stroke="#5F3305" stroke-width="2" stroke-linecap="round" stroke-linejoin="round"/>
<path d="M26 23V20.5555C25.9993 19.4723 25.664 18.42 25.047 17.5639C24.43 16.7078 23.5661 16.0964 22.5909 15.8255" stroke="#5F3305" stroke-width="2" stroke-linecap="round" stroke-linejoin="round"/>
<path d="M17.75 1C18.8942 1.25583 19.9084 1.83694 20.6326 2.65172C21.3569 3.46649 21.75 4.46858 21.75 5.5C21.75 6.53142 21.3569 7.53351 20.6326 8.34828C19.9084 9.16306 18.8942 9.74417 17.75 10" stroke="#5F3305" stroke-width="2" stroke-linecap="round" stroke-linejoin="round"/>
</g>
<defs>
<clipPath id="clip0">
<rect width="1920" height="1437" fill="white" transform="translate(-687 -325)"/>
</clipPath>
</defs>
</svg>
