<svg width="45" height="28" viewBox="0 0 45 28" fill="none" xmlns="http://www.w3.org/2000/svg">
<path d="M4.89705 12.5137C5.28397 12.4012 5.69939 12.4427 6.05639 12.6296L8.00003 13.6468L12.5 15.3913L17.5 18.0081L19.1037 18.8474C19.6953 19.157 20.3428 19.345 21.0082 19.4003L30.5 20.1888L43.2654 20.5727C43.8839 20.5913 44.1586 21.3589 43.6923 21.7657C43.5683 21.8738 43.4094 21.9333 43.245 21.9333H42.5H42.8431C42.9443 21.9333 43.0421 21.97 43.1183 22.0365C43.4146 22.2949 43.2235 22.7822 42.8305 22.7704L29.5 22.3695L19.528 21.1833C18.8499 21.1027 18.1955 20.8839 17.6051 20.5406L13.1146 17.9294C12.7069 17.6923 12.2678 17.5141 11.8102 17.4001L5.68639 15.8739C5.56249 15.843 5.44211 15.7994 5.3272 15.7437L4.65221 15.4166C3.36608 14.7933 3.5247 12.9127 4.89705 12.5137Z" fill="#2D635E"/>
<path d="M8.05181 23.4341C8.03067 23.415 8.04072 23.3799 8.06878 23.3749L10.506 22.9388C10.9992 22.8506 11.4763 22.6887 11.9213 22.4587L13.5 21.6426L16.212 19.9666C16.8995 19.5417 17.6917 19.3166 18.5 19.3166C18.9634 19.3166 19.3822 19.0407 19.5653 18.615L19.7605 18.1608C19.7623 18.1567 19.7669 18.1547 19.7711 18.1562L23.4505 19.4399C24.1174 19.6726 24.388 20.4702 24.0003 21.0607C24.0001 21.061 23.9999 21.0613 23.9998 21.0616C23.5195 22.1994 22.7262 23.1807 21.7135 23.8874L21.4989 24.0371C21.0105 24.3779 20.483 24.659 19.9277 24.8743L17.7636 25.7132C14.5106 26.7914 10.9291 26.0368 8.38757 23.7378L8.05181 23.4341Z" fill="#2D635E"/>
<path d="M21.4587 6.25589C21.377 6.1057 21.1504 6.15755 21.1214 6.33308L20.6 9.48648L20.2651 11.7696L19.7397 13.9398C19.3685 15.4729 19.2068 17.0397 19.2594 18.5938C19.26 18.6099 19.2651 18.6253 19.2743 18.638L19.6928 19.2177L20.1908 20.0763C20.1938 20.0815 20.1985 20.0852 20.2042 20.0869L21.1644 20.3778C21.3849 20.4447 21.5834 20.5659 21.7434 20.7315L22.1045 21.1054C22.8605 21.8882 24.2146 21.2843 24.2518 20.1478C24.2541 20.0785 24.2619 20.0092 24.275 19.9406L24.4617 18.9658C24.7785 17.3118 24.7937 15.6293 24.5065 14.0057L24.4009 13.4089C24.0976 11.6945 23.5273 10.0569 22.7113 8.55763L21.4587 6.25589Z" fill="#2D635E"/>
<path d="M1.88568 4.9434C2.76567 3.71526 4.07338 2.86086 5.55156 2.54829L7.15886 2.20841C8.21546 1.98498 9.23027 1.59646 10.1659 1.05715L11.98 0.0115286C11.9887 0.00652736 11.9995 0.0130598 11.999 0.0230661L11.9756 0.588748C11.8364 3.94568 10.0757 7.02595 7.25366 8.84931C6.11215 9.51312 5.64589 10.9247 6.16744 12.1378L6.75014 13.4932C6.75241 13.4985 6.75269 13.5044 6.75091 13.5099L6.15573 15.3468C6.06289 15.6334 5.79599 15.8275 5.49478 15.8275C5.16658 15.8275 4.84004 15.7809 4.5249 15.6893L3.00349 15.247C3.00117 15.2463 2.99895 15.2453 2.99686 15.2441C1.17401 14.1841 0.145128 12.1511 0.370465 10.0545L0.499345 8.85541C0.499779 8.85137 0.500827 8.84742 0.502453 8.84369L0.751155 8.27355C0.752809 8.26976 0.753662 8.26567 0.753662 8.26153C0.753662 7.13114 1.10771 6.02914 1.7661 5.11028L1.88568 4.9434Z" fill="#2D635E"/>
<path d="M3.31337 5.66395C2.85157 6.04393 2.62356 6.90315 2.56728 7.28526C2.4834 7.65999 2.37551 7.43843 2.24619 7.24956C2.41047 7.28229 2.65733 7.21348 2.33062 6.6764C2.0039 6.13932 2.30705 5.6884 2.49946 5.53007C2.6356 5.75386 2.94164 5.97216 3.07672 5.0551C3.24556 3.90877 4.6396 4.77649 4.14678 4.67831C3.75252 4.59976 3.59765 4.96223 3.5695 5.15328C3.73378 5.18601 3.77517 5.28397 3.31337 5.66395Z" fill="white" stroke="white" stroke-width="0.1"/>
<path d="M11.152 24.528C11.5189 24.7802 12.2664 24.983 12.5943 25.0529C12.9187 25.1344 12.7428 25.1571 12.5965 25.1933C12.6076 25.1232 12.5247 25.004 12.1047 25.0884C11.6848 25.1729 11.274 24.9838 11.1211 24.8788C11.2961 24.8436 11.4494 24.7313 10.6625 24.5635C9.67885 24.3538 10.2701 23.8275 10.237 24.0379C10.2104 24.2062 10.5317 24.3182 10.6956 24.3531C10.7067 24.283 10.7851 24.2758 11.152 24.528Z" fill="white" stroke="white" stroke-width="0.1"/>
</svg>
